<svg xmlns="http://www.w3.org/2000/svg" viewBox="0 0 431.3 234.78"><defs><style>.cls-1{fill:#fabb00;}.cls-2{fill:#ffba00;}</style></defs><title>Ресурс 2</title><g id="Слой_2" data-name="Слой 2"><g id="Слой_1-2" data-name="Слой 1"><path class="cls-1" d="M55.35,156.88v73.85H0V157.91A64.73,64.73,0,0,1,6.29,129.4a72.07,72.07,0,0,1,16.86-22.54,80,80,0,0,1,53.2-20.24H276.12V72.71a12.77,12.77,0,0,0-12.77-12.77H12.88V0h249a70.72,70.72,0,0,1,28.36,5.9A79.61,79.61,0,0,1,331,45.38a65.71,65.71,0,0,1,6.29,28.36v157H275.81V144.11H68.12A12.77,12.77,0,0,0,55.35,156.88Z"/><circle class="cls-2" cx="400.14" cy="203.61" r="31.17"/></g></g></svg>