<svg xmlns="http://www.w3.org/2000/svg" viewBox="0 0 596.89 199.31"><defs><style>.cls-1{fill:#fabb00;}.cls-2{font-size:48.02px;font-family:ARubricaXtCn, a_RubricaXtCn;}.cls-3{letter-spacing:0.2em;}.cls-4{letter-spacing:0.17em;}.cls-5{letter-spacing:0.22em;}.cls-6{letter-spacing:0.2em;}.cls-7{letter-spacing:0.23em;}.cls-8{fill:#ffba00;}</style></defs><title>Ресурс 4</title><g id="Слой_2" data-name="Слой 2"><g id="Слой_1-2" data-name="Слой 1"><path class="cls-1" d="M43.84,124.27v58.5H0V125.09A51.27,51.27,0,0,1,5,102.5,57.09,57.09,0,0,1,18.34,84.65a63.36,63.36,0,0,1,42.14-16H218.72v-11a10.12,10.12,0,0,0-10.12-10.12H10.2V0H207.43a56,56,0,0,1,22.47,4.67,63.06,63.06,0,0,1,32.3,31.27,52,52,0,0,1,5,22.47V182.77h-48.7V114.16H54A10.12,10.12,0,0,0,43.84,124.27Z"/><text class="cls-2" transform="translate(374.34 138.97)"><tspan class="cls-3">DIGI</tspan><tspan class="cls-4" x="91.47" y="0">T</tspan><tspan class="cls-3" x="115.24" y="0">AL </tspan><tspan x="186.54" y="0" xml:space="preserve">   </tspan><tspan class="cls-5"><tspan x="0" y="47.33">A</tspan><tspan class="cls-6" x="27.22" y="47.33">GEN</tspan><tspan class="cls-7" x="108.85" y="47.33">C</tspan><tspan class="cls-3" x="137.03" y="47.33">Y</tspan></tspan></text><circle class="cls-8" cx="316.97" cy="161.29" r="24.69"/></g></g></svg>